nColumns=28
nRows=47
DataType=double
version=3
OpenSimVersion=4.1
endheader
time	ground_force_1_vx	ground_force_1_vy	ground_force_1_vz	ground_force_1_px	ground_force_1_py	ground_force_1_pz	ground_force_1_mx	ground_force_1_my	ground_force_1_mz	ground_force_2_vx	ground_force_2_vy	ground_force_2_vz	ground_force_2_px	ground_force_2_py	ground_force_2_pz	ground_force_2_mx	ground_force_2_my	ground_force_2_mz	ground_force_3_vx	ground_force_3_vy	ground_force_3_vz	ground_force_3_px	ground_force_3_py	ground_force_3_pz	ground_force_3_mx	ground_force_3_my	ground_force_3_mz
1.09	-102.858	157.806	-18.2572	-0.11988	0.006	-0.430196	0	0.289841	0	-55.9905	83.2102	20.7121	-0.128906	0.006	-0.76917	0	-0.45868	0	0	0	0	0.000995956	0	0.000153232	0	0	0
1.1	-323.333	552.982	-62.7293	-0.126759	0.006	-0.431002	0	2.553	0	-220.164	355.689	68.2573	-0.138299	0.006	-0.771875	0	-1.17063	0	0	0	0	0.000995956	0	0.000153232	0	0	0
1.11	-282.968	742.401	-69.7636	-0.135277	0.006	-0.435157	0	7.2014	0	-239.55	502.422	69.5988	-0.140764	0.006	-0.763106	0	-4.30179	0	0	0	0	0.000995956	0	0.000153232	0	0	0
1.12	-116.148	756.836	-24.0492	-0.144129	0.006	-0.442238	0	7.82888	0	-93.2157	486.696	-7.3075	-0.144101	0.006	-0.74505	0	-2.69768	0	0	0	0	0.000995956	0	0.000153232	0	0	0
1.13	-179.378	864.948	-22.3854	-0.145273	0.006	-0.447614	0	3.29802	0	-98.8707	536.805	-32.2517	-0.14381	0.006	-0.733024	0	3.4196	0	0	0	0	0.000995956	0	0.000153232	0	0	0
1.14	-283.703	931.162	-25.187	-0.143251	0.006	-0.451334	0	-0.666795	0	-208.45	612.394	-10.5362	-0.141564	0.006	-0.728297	0	5.09512	0	0	0	0	0.000995956	0	0.000153232	0	0	0
1.15	-323.743	934.162	-20.7034	-0.141411	0.006	-0.454469	0	-2.58623	0	-273.771	646.624	18.447	-0.142004	0.006	-0.726168	0	3.93733	0	0	0	0	0.000995956	0	0.000153232	0	0	0
1.16	-303.059	950.677	-20.5221	-0.141299	0.006	-0.456368	0	-2.67927	0	-247.862	669.598	40.4425	-0.146363	0.006	-0.725646	0	1.61832	0	0	0	0	0.000995956	0	0.000153232	0	0	0
1.17	-245.309	1010.24	-34.5868	-0.142322	0.006	-0.456655	0	-0.711903	0	-163.744	729.26	50.0317	-0.153575	0.006	-0.725768	0	-0.642894	0	0	0	0	0.000995956	0	0.000153232	0	0	0
1.18	-202.517	1065.79	-58.6843	-0.141612	0.006	-0.456728	0	1.756	0	-116.119	827.966	64.5401	-0.159355	0.006	-0.725911	0	-3.02908	0	0	0	0	0.000995956	0	0.000153232	0	0	0
1.19	-195.199	1072.39	-63.1465	-0.13781	0.006	-0.458422	0	2.38057	0	-127.384	896.314	74.1049	-0.159441	0.006	-0.725268	0	-4.10409	0	0	0	0	0.000995956	0	0.000153232	0	0	0
1.2	-201.91	1028.68	-46.4298	-0.132194	0.006	-0.461322	0	1.06002	0	-148.168	874.693	57.0033	-0.153552	0.006	-0.723197	0	-2.82842	0	0	0	0	0.000995956	0	0.000153232	0	0	0
1.21	-204.482	958.234	-24.1621	-0.126841	0.006	-0.4641	0	-0.673846	0	-158.77	796.86	32.3788	-0.145523	0.006	-0.720737	0	-0.786312	0	0	0	0	0.000995956	0	0.000153232	0	0	0
1.22	-201.696	889.492	-10.5487	-0.123326	0.006	-0.465544	0	-1.56051	0	-159.821	707.919	16.7197	-0.13892	0.006	-0.718599	0	0.163526	0	0	0	0	0.000995956	0	0.000153232	0	0	0
1.23	-195.737	840.723	-10.7563	-0.122276	0.006	-0.465436	0	-1.09407	0	-158.558	627.443	12.6353	-0.133874	0.006	-0.717127	0	-0.09804	0	0	0	0	0.000995956	0	0.000153232	0	0	0
1.24	-182.169	818.389	-22.4563	-0.123788	0.006	-0.463945	0	0.524166	0	-159.79	568.929	13.8643	-0.129762	0.006	-0.716202	0	-0.73563	0	0	0	0	0.000995956	0	0.000153232	0	0	0
1.25	-161.796	820.912	-40.3655	-0.12755	0.006	-0.461822	0	2.51681	0	-160.357	537.075	16.2043	-0.127027	0.006	-0.715535	0	-1.27172	0	0	0	0	0.000995956	0	0.000153232	0	0	0
1.26	-137.24	843.678	-54.5567	-0.13267	0.006	-0.460262	0	3.7946	0	-152.031	519.774	16.9834	-0.125998	0.006	-0.714666	0	-1.56192	0	0	0	0	0.000995956	0	0.000153232	0	0	0
1.27	-107.693	883.679	-57.4942	-0.137941	0.006	-0.459887	0	3.80205	0	-136.778	507.089	15.6923	-0.12641	0.006	-0.713218	0	-1.47934	0	0	0	0	0.000995956	0	0.000153232	0	0	0
1.28	-76.4101	934.294	-48.9513	-0.142424	0.006	-0.460545	0	2.66644	0	-123.757	501.899	14.7748	-0.128243	0.006	-0.711506	0	-0.93137	0	0	0	0	0.000995956	0	0.000153232	0	0	0
1.29	-49.6517	970.181	-35.1346	-0.145754	0.006	-0.461513	0	1.02784	0	-116.268	506.37	15.3632	-0.131308	0.006	-0.70979	0	-0.137314	0	0	0	0	0.000995956	0	0.000153232	0	0	0
1.3	-33.4649	976.099	-24.0913	-0.147837	0.006	-0.462304	0	-0.319779	0	-110.344	517.819	15.5516	-0.134889	0.006	-0.708304	0	0.539177	0	0	0	0	0.000995956	0	0.000153232	0	0	0
1.31	-33.6217	956.71	-21.0945	-0.148214	0.006	-0.462616	0	-0.788595	0	-103.634	539.023	15.4577	-0.138954	0.006	-0.707408	0	0.900769	0	0	0	0	0.000995956	0	0.000153232	0	0	0
1.32	-44.1629	919.036	-27.3934	-0.146896	0.006	-0.462125	0	-0.083	0	-89.6392	580.717	14.3459	-0.144746	0.006	-0.706817	0	1.33876	0	0	0	0	0.000995956	0	0.000153232	0	0	0
1.33	-56.2373	876.644	-39.1786	-0.144615	0.006	-0.460954	0	1.42935	0	-62.1468	645.872	7.82808	-0.153902	0.006	-0.705545	0	2.21047	0	0	0	0	0.000995956	0	0.000153232	0	0	0
1.34	-64.4342	841.848	-49.0824	-0.142067	0.006	-0.45995	0	2.99363	0	-33.5518	699.251	0.88021	-0.161138	0.006	-0.704333	0	2.67438	0	0	0	0	0.000995956	0	0.000153232	0	0	0
1.35	-67.8007	820.452	-52.4631	-0.13979	0.006	-0.459605	0	4.01285	0	-39.5253	697.154	5.14206	-0.158086	0.006	-0.705403	0	2.07351	0	0	0	0	0.000995956	0	0.000153232	0	0	0
1.36	-66.7792	815.097	-49.8682	-0.138173	0.006	-0.460025	0	4.46371	0	-70.1498	657.343	11.9964	-0.14838	0.006	-0.707546	0	1.47846	0	0	0	0	0.000995956	0	0.000153232	0	0	0
1.37	-59.6876	821.668	-44.0891	-0.13756	0.006	-0.461043	0	4.55977	0	-89.7593	618.179	11.4714	-0.141179	0.006	-0.708243	0	1.73464	0	0	0	0	0.000995956	0	0.000153232	0	0	0
1.38	-46.8527	835.161	-37.513	-0.138054	0.006	-0.462133	0	4.41552	0	-97.5402	587.512	8.71485	-0.137792	0.006	-0.707884	0	2.23749	0	0	0	0	0.000995956	0	0.000153232	0	0	0
1.39	-32.7874	850.941	-32.4421	-0.139172	0.006	-0.462973	0	4.33314	0	-104.7	568.807	8.73288	-0.136119	0.006	-0.707543	0	2.47147	0	0	0	0	0.000995956	0	0.000153232	0	0	0
1.4	-20.6316	861.279	-30.1132	-0.140301	0.006	-0.463464	0	4.50799	0	-109.525	564.065	12.0305	-0.135816	0.006	-0.707575	0	2.41366	0	0	0	0	0.000995956	0	0.000153232	0	0	0
1.41	-12.1795	861.545	-30.8812	-0.14117	0.006	-0.463488	0	4.86963	0	-106.064	572.706	17.6586	-0.137762	0.006	-0.707902	0	2.12767	0	0	0	0	0.000995956	0	0.000153232	0	0	0
1.42	-8.99795	850.799	-33.225	-0.141661	0.006	-0.46313	0	5.38869	0	-90.4789	605.904	21.7998	-0.145638	0.006	-0.707171	0	1.80415	0	0	0	0	0.000995956	0	0.000153232	0	0	0
1.43	-11.3905	831.624	-35.3492	-0.141746	0.006	-0.462653	0	5.95956	0	-53.3813	673.712	18.6715	-0.162637	0.006	-0.704122	0	1.76325	0	0	0	0	0.000995956	0	0.000153232	0	0	0
1.44	-17.9722	807.421	-37.0127	-0.141559	0.006	-0.462091	0	6.55945	0	-9.2415	734.544	18.8441	-0.17941	0.006	-0.701552	0	1.1162	0	0	0	0	0.000995956	0	0.000153232	0	0	0
1.45	-26.1311	781.637	-38.783	-0.141472	0.006	-0.461454	0	7.1165	0	12.5587	758.009	28.5804	-0.190131	0.006	-0.700954	0	-0.519496	0	0	0	0	0.000995956	0	0.000153232	0	0	0
1.46	-33.7969	758.664	-40.8488	-0.141772	0.006	-0.460676	0	7.6033	0	11.3346	752.152	37.0028	-0.196638	0.006	-0.701089	0	-2.15996	0	0	0	0	0.000995956	0	0.000153232	0	0	0
1.47	-39.2964	743.542	-43.1318	-0.142638	0.006	-0.45991	0	7.99342	0	3.2388	738.188	35.684	-0.202224	0.006	-0.700389	0	-2.89417	0	0	0	0	0.000995956	0	0.000153232	0	0	0
1.48	-41.1191	740.458	-45.9459	-0.143933	0.006	-0.45938	0	8.39067	0	0.947992	732.014	29.478	-0.208359	0.006	-0.69903	0	-3.15078	0	0	0	0	0.000995956	0	0.000153232	0	0	0
1.49	-39.7343	751.501	-49.8164	-0.145209	0.006	-0.459373	0	8.96234	0	5.33451	740.744	26.5734	-0.214566	0.006	-0.69818	0	-3.65233	0	0	0	0	0.000995956	0	0.000153232	0	0	0
1.5	-36.7762	773.725	-53.4367	-0.146112	0.006	-0.460021	0	9.52436	0	13.7676	763.887	31.2604	-0.219754	0.006	-0.698547	0	-4.4983	0	0	0	0	0.000995956	0	0.000153232	0	0	0
1.51	-31.59	803.123	-55.1858	-0.146213	0.006	-0.461102	0	9.75755	0	24.2704	794.288	41.9014	-0.221646	0.006	-0.700263	0	-5.28045	0	0	0	0	0.000995956	0	0.000153232	0	0	0
1.52	-26.173	836.822	-56.5197	-0.144915	0.006	-0.462279	0	9.54447	0	27.9916	821.912	53.302	-0.216912	0.006	-0.703372	0	-5.52337	0	0	0	0	0.000995956	0	0.000153232	0	0	0
1.53	-25.3789	865.883	-57.5406	-0.141915	0.006	-0.46344	0	8.79506	0	11.7129	838.452	61.6884	-0.204214	0.006	-0.707703	0	-5.18712	0	0	0	0	0.000995956	0	0.000153232	0	0	0
1.54	-31.3908	880.467	-54.9657	-0.137517	0.006	-0.464569	0	7.65525	0	-20.4741	843.01	67.4765	-0.186839	0.006	-0.712469	0	-4.56683	0	0	0	0	0.000995956	0	0.000153232	0	0	0
1.55	-43.3115	878.077	-48.4314	-0.132133	0.006	-0.465584	0	6.35243	0	-50.2604	844.507	72.7407	-0.17003	0.006	-0.717002	0	-4.06568	0	0	0	0	0.000995956	0	0.000153232	0	0	0
